<?xml version="1.0" encoding="UTF-8" ?>
<!DOCTYPE svg PUBLIC "-//W3C//DTD SVG 1.1//EN" "http://www.w3.org/Graphics/SVG/1.1/DTD/svg11.dtd">
<svg width="690pt" height="758pt" viewBox="0 0 690 758" version="1.1" xmlns="http://www.w3.org/2000/svg">
<path fill="#ffffff" stroke="#ffffff" stroke-width="0.09375" opacity="1.00" d=" M 0.00 0.00 L 690.00 0.00 L 690.00 758.00 L 0.00 758.00 L 0.00 0.00 Z" />
<path fill="#cccd33" stroke="#cccd33" stroke-width="0.09375" opacity="1.00" d=" M 397.27 5.47 C 401.83 10.20 408.83 8.77 414.21 11.78 C 414.86 12.01 416.17 12.46 416.82 12.68 C 416.86 15.01 416.44 17.49 417.50 19.67 C 419.44 19.85 421.22 18.91 423.01 18.32 C 423.85 19.16 424.69 20.01 425.53 20.87 C 427.31 20.97 429.09 21.08 430.88 21.18 C 430.37 23.62 430.20 26.12 430.88 28.55 C 428.76 29.09 426.74 29.89 424.82 30.91 C 424.29 30.24 423.76 29.56 423.24 28.89 C 421.39 29.22 419.52 29.42 417.71 29.89 C 416.85 32.29 416.64 34.85 416.21 37.35 C 417.78 38.29 419.29 39.35 420.50 40.74 C 422.00 40.20 423.50 39.66 425.01 39.10 C 425.07 39.69 425.19 40.86 425.25 41.45 C 423.77 42.49 422.32 43.56 420.91 44.68 C 421.79 45.94 422.61 47.25 423.65 48.39 C 426.95 49.19 430.35 48.10 433.65 47.73 C 433.80 47.09 434.09 45.80 434.24 45.16 C 436.33 45.26 438.52 44.86 440.54 45.53 C 442.31 46.80 443.78 48.95 446.26 48.30 C 446.90 50.61 448.00 52.73 449.26 54.75 C 449.80 55.08 450.88 55.74 451.43 56.07 C 450.43 56.84 449.43 57.61 448.44 58.37 C 449.04 60.40 449.67 62.75 452.18 63.06 C 450.74 63.34 449.29 63.65 447.86 63.95 C 447.58 64.91 447.30 65.86 447.03 66.82 C 447.61 67.12 448.77 67.72 449.35 68.01 C 447.64 68.96 445.92 69.89 444.20 70.80 C 448.24 73.63 452.29 76.59 457.10 77.98 C 458.11 77.17 459.12 76.36 460.15 75.57 C 460.30 78.21 460.78 80.99 459.41 83.41 C 461.47 83.78 463.56 83.82 465.65 83.65 C 464.39 87.57 464.82 91.74 464.09 95.75 C 464.74 95.82 466.05 95.97 466.71 96.04 C 466.87 98.10 467.15 100.15 467.17 102.22 C 466.69 103.57 465.07 104.06 464.05 104.95 C 463.96 108.29 464.27 111.62 464.87 114.91 C 465.38 114.73 466.42 114.35 466.94 114.17 C 468.13 115.01 469.34 115.85 470.55 116.69 C 470.67 118.53 470.78 120.36 470.88 122.20 C 471.35 122.44 472.30 122.92 472.77 123.15 C 473.32 126.61 473.80 130.08 474.20 133.57 C 474.96 134.03 475.73 134.49 476.50 134.96 C 476.28 136.89 476.12 138.84 475.97 140.78 C 476.56 141.03 477.74 141.54 478.32 141.79 C 478.44 142.39 478.68 143.59 478.79 144.20 C 476.86 143.50 474.94 142.76 473.04 141.99 C 472.41 143.09 471.78 144.18 471.14 145.27 C 471.16 145.87 471.20 147.06 471.22 147.66 C 472.14 148.31 473.08 148.96 474.03 149.61 C 471.20 149.01 468.32 148.70 465.45 148.47 C 463.92 150.43 463.17 152.79 462.78 155.21 C 463.53 156.59 463.97 158.16 463.70 159.74 C 460.60 155.41 462.04 149.66 461.75 144.69 C 457.50 146.48 453.20 148.22 449.25 150.63 C 449.24 152.09 449.29 153.55 449.19 155.01 C 447.84 154.79 446.50 154.54 445.17 154.26 C 444.18 157.22 444.76 160.28 445.42 163.24 C 446.32 164.81 447.16 166.41 447.96 168.04 C 446.99 167.70 445.06 167.00 444.09 166.65 C 444.14 167.67 444.26 169.71 444.32 170.72 C 443.81 169.30 443.32 167.87 442.83 166.44 C 440.47 167.14 438.49 166.37 437.09 164.40 C 432.78 168.42 428.66 172.90 423.04 175.09 C 422.26 174.55 421.48 174.02 420.71 173.48 C 419.17 176.35 416.48 178.07 413.38 178.84 C 413.29 179.55 413.12 180.99 413.03 181.70 C 412.66 181.16 411.91 180.07 411.54 179.52 C 408.68 179.80 405.82 179.63 402.99 179.19 C 402.63 180.80 402.28 182.41 401.94 184.02 C 399.53 184.84 397.03 185.44 394.76 186.62 C 390.94 189.21 390.50 194.29 387.77 197.71 C 382.36 200.90 376.09 202.10 369.87 201.61 C 366.98 198.83 364.55 195.64 362.21 192.40 C 360.26 192.63 358.32 192.86 356.38 193.10 C 354.91 195.24 353.34 197.30 351.65 199.27 C 352.03 199.67 352.80 200.46 353.18 200.86 C 349.37 203.41 344.74 203.55 340.31 203.57 C 340.15 204.25 339.82 205.61 339.66 206.29 C 336.88 205.84 334.10 205.39 331.32 204.97 C 330.29 205.71 329.26 206.45 328.23 207.19 C 328.25 207.80 328.28 209.02 328.30 209.63 C 327.11 209.52 325.93 209.41 324.75 209.29 C 324.01 206.99 324.08 204.57 324.20 202.19 C 324.92 201.24 325.64 200.28 326.37 199.33 C 327.63 199.22 328.90 199.06 330.16 198.88 C 330.35 197.37 328.86 196.29 328.43 194.92 C 327.77 192.22 327.42 189.46 326.71 186.77 C 328.06 186.42 329.41 186.08 330.76 185.75 C 331.23 184.41 331.73 183.07 332.24 181.74 C 330.88 180.35 330.97 178.45 331.00 176.64 C 330.33 175.28 329.73 173.88 329.23 172.45 C 327.03 170.55 324.28 169.20 321.34 170.13 C 321.37 168.47 321.40 166.83 321.42 165.18 C 319.13 164.06 316.99 162.62 315.46 160.56 C 317.18 159.35 319.10 158.32 320.53 156.75 C 321.33 154.73 321.08 152.49 321.25 150.37 C 321.80 150.16 322.91 149.75 323.46 149.55 C 323.63 148.99 323.95 147.89 324.11 147.33 C 322.65 145.43 321.19 143.52 319.65 141.68 C 319.30 140.36 318.95 139.03 318.60 137.72 C 320.11 137.54 321.62 137.34 323.13 137.10 C 321.90 136.40 320.61 135.83 319.28 135.38 C 319.01 134.24 318.75 133.10 318.50 131.96 C 315.37 130.54 311.96 130.11 308.65 129.33 C 306.31 127.89 308.02 124.72 308.18 122.61 C 306.89 122.40 305.61 122.18 304.33 121.95 C 304.18 117.46 305.18 112.85 304.10 108.45 C 302.94 107.78 301.81 107.07 300.69 106.34 C 301.36 103.30 301.71 100.09 303.43 97.41 C 304.63 95.08 307.44 94.63 309.61 93.61 C 310.02 92.04 310.45 90.46 310.89 88.90 C 310.06 86.22 309.60 83.22 307.33 81.32 C 307.38 80.73 307.49 79.57 307.54 78.99 C 307.21 77.58 306.20 76.19 306.71 74.70 C 310.47 74.69 314.37 74.41 317.48 72.00 C 316.87 69.18 313.32 67.79 312.25 64.95 C 312.92 61.38 312.36 57.44 314.25 54.20 C 315.72 53.17 317.35 52.38 318.84 51.38 C 318.78 52.06 318.65 53.42 318.58 54.10 C 320.40 54.09 322.23 54.08 324.06 54.04 C 325.03 55.16 325.99 56.30 326.91 57.47 C 327.92 58.21 328.95 58.95 329.98 59.68 C 331.76 58.72 333.62 57.92 335.56 57.32 C 335.66 56.78 335.85 55.70 335.94 55.16 C 338.84 55.62 341.78 55.46 344.67 54.94 C 345.37 53.25 346.10 51.56 346.85 49.89 C 346.34 49.38 345.31 48.37 344.79 47.86 C 346.01 47.21 347.23 46.58 348.46 45.94 C 348.37 45.29 348.19 43.99 348.10 43.34 C 345.63 42.56 345.00 40.34 344.81 38.02 C 346.49 36.95 348.17 35.87 349.88 34.82 C 350.20 33.79 350.53 32.76 350.87 31.73 C 351.79 32.26 352.72 32.79 353.65 33.31 C 354.17 32.03 354.72 30.75 355.28 29.49 C 355.47 30.38 355.83 32.18 356.02 33.07 C 356.66 33.11 357.95 33.18 358.60 33.22 C 358.91 33.75 359.53 34.81 359.84 35.35 C 360.28 35.12 361.15 34.65 361.58 34.42 C 361.91 34.90 362.57 35.86 362.90 36.34 C 364.74 36.25 366.58 36.14 368.42 35.99 C 367.88 35.56 366.81 34.71 366.27 34.28 C 369.45 34.58 369.33 31.51 369.77 29.32 C 372.37 31.02 375.27 30.04 377.91 29.05 C 380.10 29.36 382.29 29.08 384.37 28.29 C 384.16 27.74 383.76 26.63 383.56 26.08 C 385.60 24.28 388.40 23.63 390.36 21.73 C 390.11 20.61 389.77 19.53 389.45 18.43 C 390.69 18.39 391.93 18.36 393.18 18.33 C 396.32 14.77 396.85 9.99 397.27 5.47 Z" />
<path fill="#b4ccfe" stroke="#b4ccfe" stroke-width="0.09375" opacity="1.00" d=" M 449.25 150.63 C 453.20 148.22 457.50 146.48 461.75 144.69 C 462.04 149.66 460.60 155.41 463.70 159.74 C 466.44 162.48 467.56 166.23 469.46 169.51 C 471.01 170.71 472.97 171.17 474.77 171.89 C 474.50 173.09 474.23 174.28 473.98 175.48 C 475.26 176.75 476.17 178.31 476.90 179.95 C 476.22 181.20 475.57 182.45 474.94 183.71 C 476.26 185.28 477.48 186.95 478.62 188.67 C 480.50 190.20 480.86 192.55 481.10 194.81 C 481.89 195.92 482.70 197.02 483.50 198.12 C 482.64 199.14 481.74 200.14 481.02 201.26 C 481.37 205.06 483.45 208.41 485.23 211.69 C 481.49 213.96 480.38 218.63 476.77 221.06 C 473.31 224.41 468.14 222.40 464.00 223.99 C 458.46 226.04 454.70 231.34 448.91 232.88 C 444.41 233.52 439.80 232.80 435.51 231.39 C 433.12 230.54 430.64 229.98 428.16 229.46 C 425.17 233.32 422.08 237.22 418.12 240.13 C 413.17 243.55 406.71 243.67 401.83 247.12 C 402.17 257.24 405.63 267.42 403.06 277.52 C 402.55 276.20 401.53 273.55 401.02 272.23 C 398.75 274.62 394.70 278.01 397.29 281.56 C 398.57 281.47 401.12 281.29 402.40 281.20 C 400.79 283.16 397.59 287.08 395.98 289.03 C 395.48 287.48 394.46 284.36 393.95 282.81 C 393.91 283.47 393.83 284.79 393.79 285.45 C 394.74 286.32 395.67 287.21 396.59 288.13 C 390.73 294.48 384.43 300.49 379.23 307.41 C 377.15 310.24 379.45 313.62 380.27 316.49 C 376.94 321.29 376.82 327.57 373.41 332.34 C 371.99 334.27 369.37 334.32 367.27 334.92 C 367.32 336.07 367.39 337.23 367.46 338.40 L 366.35 338.57 C 366.03 338.06 365.41 337.05 365.09 336.54 C 365.20 339.44 365.34 342.35 365.26 345.26 C 363.76 348.31 360.56 350.13 359.18 353.26 C 357.28 357.29 355.82 361.55 353.37 365.29 C 350.46 370.20 343.26 367.66 339.96 372.27 L 339.47 372.03 L 338.99 371.74 C 337.10 370.97 335.19 370.27 333.27 369.61 C 333.00 369.20 332.47 368.38 332.21 367.98 C 330.17 366.23 328.27 364.34 326.47 362.36 C 327.40 360.39 328.31 358.40 329.18 356.41 C 330.22 353.96 331.48 351.55 331.97 348.92 C 331.92 346.30 330.52 343.81 330.99 341.18 C 331.57 338.02 331.97 334.83 332.14 331.62 C 329.92 331.39 327.69 331.28 325.46 331.26 C 325.15 330.96 324.53 330.36 324.21 330.05 C 320.24 332.55 316.20 335.13 311.70 336.53 C 308.17 336.45 304.67 335.73 301.13 335.65 C 300.05 334.18 298.97 332.71 297.87 331.26 C 296.08 331.30 294.29 331.34 292.50 331.25 C 290.99 330.89 289.61 329.28 290.75 327.81 C 292.96 324.14 293.96 319.84 293.47 315.57 C 292.68 313.67 291.41 312.04 290.28 310.34 C 290.69 309.97 291.51 309.22 291.91 308.84 C 291.60 307.60 291.28 306.35 290.98 305.12 C 286.91 303.09 282.39 301.54 279.46 297.86 C 280.73 293.27 281.59 288.55 281.40 283.77 C 276.62 283.50 271.81 283.38 267.12 282.32 C 267.48 280.12 267.88 277.93 268.31 275.74 C 266.80 275.17 265.29 274.60 263.78 274.03 C 263.39 272.21 263.30 270.28 262.45 268.62 C 261.01 266.92 258.52 266.39 257.48 264.31 C 259.99 264.32 262.83 264.61 264.84 262.75 C 267.74 260.74 268.06 256.79 270.42 254.39 C 275.18 251.51 280.78 250.52 286.16 249.46 C 285.16 245.36 281.36 243.10 279.26 239.68 C 278.16 237.98 278.61 235.84 278.31 233.94 C 278.51 231.85 276.47 230.77 275.28 229.42 C 275.08 225.10 276.13 220.81 275.52 216.51 C 276.27 216.09 277.02 215.68 277.78 215.28 C 281.91 217.24 286.17 215.09 289.82 213.11 C 289.72 212.57 289.54 211.50 289.44 210.96 C 290.91 211.30 292.38 211.63 293.85 211.98 C 296.06 211.56 298.33 211.31 300.44 210.48 C 303.19 209.22 303.90 206.03 305.04 203.52 C 305.98 203.69 306.93 203.87 307.88 204.05 C 308.45 203.82 309.59 203.36 310.16 203.13 C 312.31 204.98 314.35 206.96 316.21 209.10 C 317.53 208.41 318.85 207.74 320.19 207.08 C 321.51 208.17 322.90 209.38 324.75 209.29 C 325.93 209.41 327.11 209.52 328.30 209.63 C 328.28 209.02 328.25 207.80 328.23 207.19 C 329.26 206.45 330.29 205.71 331.32 204.97 C 334.10 205.39 336.88 205.84 339.66 206.29 C 339.82 205.61 340.15 204.25 340.31 203.57 C 344.74 203.55 349.37 203.41 353.18 200.86 C 352.80 200.46 352.03 199.67 351.65 199.27 C 353.34 197.30 354.91 195.24 356.38 193.10 C 358.32 192.86 360.26 192.63 362.21 192.40 C 364.55 195.64 366.98 198.83 369.87 201.61 C 376.09 202.10 382.36 200.90 387.77 197.71 C 390.50 194.29 390.94 189.21 394.76 186.62 C 397.03 185.44 399.53 184.84 401.94 184.02 C 402.28 182.41 402.63 180.80 402.99 179.19 C 405.82 179.63 408.68 179.80 411.54 179.52 C 411.91 180.07 412.66 181.16 413.03 181.70 C 413.12 180.99 413.29 179.55 413.38 178.84 C 416.48 178.07 419.17 176.35 420.71 173.48 C 421.48 174.02 422.26 174.55 423.04 175.09 C 428.66 172.90 432.78 168.42 437.09 164.40 C 438.49 166.37 440.47 167.14 442.83 166.44 C 443.32 167.87 443.81 169.30 444.32 170.72 C 444.26 169.71 444.14 167.67 444.09 166.65 C 445.06 167.00 446.99 167.70 447.96 168.04 C 447.16 166.41 446.32 164.81 445.42 163.24 C 444.76 160.28 444.18 157.22 445.17 154.26 C 446.50 154.54 447.84 154.79 449.19 155.01 C 449.29 153.55 449.24 152.09 449.25 150.63 Z" />
<path fill="#ffc833" stroke="#ffc833" stroke-width="0.09375" opacity="1.00" d=" M 418.12 240.13 C 422.08 237.22 425.17 233.32 428.16 229.46 C 430.64 229.98 433.12 230.54 435.51 231.39 C 436.55 232.25 437.58 233.13 438.61 234.02 C 437.73 234.19 435.98 234.55 435.11 234.73 C 438.22 237.98 437.73 242.58 436.81 246.59 C 433.95 247.31 431.05 247.91 428.31 249.00 C 428.97 250.93 429.88 252.76 430.72 254.62 C 431.19 254.82 432.13 255.21 432.60 255.41 C 433.16 257.43 433.70 259.45 434.19 261.50 C 437.34 262.78 440.66 264.17 444.13 263.36 C 445.32 262.27 446.61 261.30 448.00 260.48 C 448.08 261.35 448.23 263.11 448.30 263.99 C 449.42 264.31 450.54 264.64 451.66 264.97 C 451.55 268.41 449.36 271.13 447.50 273.83 C 447.65 274.55 447.96 276.00 448.12 276.72 C 448.77 276.86 450.06 277.13 450.70 277.27 C 451.66 278.78 452.64 280.29 453.67 281.76 C 453.52 282.46 453.38 283.17 453.25 283.89 C 453.82 284.73 454.40 285.57 454.99 286.42 C 456.11 285.94 457.24 285.48 458.37 285.01 C 460.43 286.28 462.49 287.55 464.46 288.98 C 465.33 288.11 466.20 287.23 467.08 286.37 C 468.75 288.73 471.76 287.21 474.06 286.95 C 479.88 285.21 485.99 285.23 491.96 284.33 C 491.84 280.19 497.16 280.34 499.89 278.74 C 501.23 279.27 502.58 279.79 503.94 280.30 C 505.22 282.52 506.60 284.70 508.42 286.53 C 508.62 285.78 509.04 284.28 509.25 283.54 C 510.55 282.39 511.82 281.21 513.07 280.00 C 512.95 276.38 516.60 275.87 519.35 275.33 C 520.39 276.33 521.45 277.31 522.53 278.29 C 521.32 278.83 520.12 279.38 518.93 279.93 C 520.19 283.82 524.66 283.36 527.21 285.83 C 526.58 287.74 526.00 289.67 525.43 291.61 C 523.84 292.14 522.26 292.66 520.68 293.18 C 520.76 294.09 520.94 295.92 521.02 296.84 C 519.30 295.59 517.61 294.32 515.99 292.97 C 515.08 294.68 514.18 296.39 513.28 298.11 C 516.52 299.39 520.18 300.03 522.84 302.46 C 524.11 303.72 526.01 303.32 527.63 303.60 C 527.71 305.10 527.80 306.61 527.88 308.13 C 530.07 310.82 533.27 312.75 534.50 316.14 C 537.56 316.87 535.92 319.09 534.16 320.22 C 532.74 322.42 530.04 324.24 530.39 327.15 C 530.16 331.04 530.70 334.94 532.54 338.42 C 533.28 338.44 534.76 338.50 535.50 338.53 C 536.24 340.25 536.48 342.08 536.06 343.93 C 538.96 349.11 545.38 349.76 549.43 353.65 C 551.80 355.92 554.39 358.01 556.33 360.70 C 557.73 360.88 559.14 361.07 560.56 361.27 C 562.93 364.36 566.09 366.64 569.44 368.58 C 573.19 371.00 572.43 375.98 572.33 379.80 C 574.12 382.65 577.50 384.03 580.11 386.06 C 580.34 385.57 580.82 384.60 581.05 384.12 C 582.70 383.66 584.36 383.20 586.03 382.76 C 590.73 383.77 595.78 384.46 599.44 387.90 C 598.44 387.98 596.43 388.14 595.43 388.22 C 595.45 388.76 595.49 389.82 595.51 390.35 C 592.30 392.38 591.61 396.13 592.66 399.59 C 590.40 401.70 588.38 404.05 586.05 406.09 C 585.33 408.39 585.00 410.80 584.31 413.12 C 582.98 415.17 580.44 416.14 578.13 416.59 C 578.12 417.20 578.11 418.42 578.10 419.04 C 576.60 422.08 578.11 426.11 574.94 428.30 C 575.84 429.95 576.75 431.61 577.71 433.24 C 578.91 433.23 580.11 433.23 581.33 433.24 C 581.63 435.07 581.99 436.90 582.41 438.72 C 582.20 439.35 581.79 440.60 581.58 441.23 C 581.91 441.78 582.55 442.88 582.87 443.43 C 584.21 445.86 583.43 448.66 583.30 451.28 C 583.70 451.63 584.49 452.34 584.89 452.70 C 582.51 452.30 579.90 452.92 579.10 455.47 C 577.45 455.64 575.78 455.78 574.14 455.96 C 574.87 456.88 575.61 457.80 576.36 458.73 C 579.05 458.22 581.81 458.09 584.50 458.76 C 583.64 460.28 582.19 461.22 580.76 462.12 C 580.74 464.04 582.46 465.57 582.54 467.56 C 581.92 467.57 580.67 467.60 580.05 467.61 C 579.75 468.06 579.14 468.97 578.84 469.43 C 577.25 470.24 576.14 471.64 575.14 473.08 C 579.35 475.09 583.82 476.72 587.54 479.64 C 587.35 481.08 587.19 482.54 587.05 484.00 C 589.33 484.83 591.31 486.24 593.26 487.68 C 593.65 489.81 594.09 491.94 594.56 494.08 L 592.76 494.18 C 589.32 494.38 586.36 496.39 583.21 497.55 C 580.57 497.31 577.94 497.16 575.31 496.98 C 573.88 494.63 571.47 494.01 568.87 494.49 C 565.45 491.98 561.71 489.96 557.64 488.75 C 555.90 486.85 554.04 485.08 552.09 483.43 C 551.95 482.65 551.68 481.10 551.54 480.32 C 549.16 481.80 546.85 483.41 544.70 485.22 C 542.91 485.31 541.13 485.39 539.35 485.49 C 539.13 485.96 538.71 486.92 538.49 487.39 C 535.96 488.88 534.12 491.20 532.72 493.74 C 530.61 495.27 528.39 496.63 526.03 497.74 C 525.75 498.58 525.47 499.44 525.21 500.30 C 523.80 500.07 522.39 499.80 520.97 499.75 C 517.32 501.28 514.44 504.72 510.12 504.27 C 509.56 504.70 509.01 505.13 508.47 505.58 C 505.87 504.20 503.26 502.86 500.65 501.51 C 499.92 503.86 499.56 506.30 499.66 508.77 C 498.05 510.56 496.27 512.19 494.33 513.62 C 493.85 515.27 493.37 516.92 492.91 518.58 C 489.91 518.93 487.15 520.14 484.58 521.67 C 484.15 521.36 483.29 520.73 482.87 520.41 C 481.94 520.64 481.02 520.87 480.10 521.11 C 473.60 518.10 466.29 522.19 461.39 526.51 C 461.29 529.83 461.34 533.17 461.94 536.46 C 461.49 536.10 460.59 535.39 460.15 535.04 C 457.65 536.08 455.05 536.86 452.45 537.58 C 452.23 537.06 451.80 536.00 451.59 535.48 C 449.97 534.69 448.31 533.98 446.82 532.99 C 446.38 531.43 446.49 529.79 446.45 528.20 C 445.79 527.74 445.13 527.29 444.49 526.84 C 442.59 524.82 441.34 521.44 438.15 521.26 C 437.27 521.66 436.41 522.11 435.58 522.60 C 432.36 522.32 429.13 522.30 425.93 522.76 C 425.97 522.07 426.06 520.68 426.10 519.98 C 427.85 517.13 427.84 513.85 426.88 510.73 C 429.25 507.19 433.04 504.99 435.62 501.68 C 437.11 498.36 433.31 497.35 430.97 496.54 C 430.60 493.54 429.86 490.51 430.26 487.48 C 431.93 484.45 435.21 482.08 434.62 478.21 C 438.55 475.41 442.37 472.29 445.31 468.44 C 446.16 465.66 444.78 462.85 444.10 460.19 C 445.43 459.83 446.76 459.48 448.10 459.13 C 449.00 456.96 450.34 454.87 450.53 452.49 C 449.39 450.01 445.62 449.75 444.75 447.00 C 446.40 441.97 450.72 438.49 454.88 435.52 C 454.77 434.74 454.68 433.97 454.58 433.20 C 452.76 431.59 451.20 429.73 449.85 427.73 C 450.48 427.51 451.74 427.09 452.37 426.88 C 450.64 423.62 448.59 420.48 447.54 416.92 C 447.94 414.27 450.35 412.53 451.69 410.33 C 450.80 409.74 449.91 409.19 449.01 408.66 C 449.72 407.81 450.43 406.98 451.14 406.14 C 448.19 403.99 444.86 402.45 441.25 401.79 C 440.15 400.26 439.06 398.72 437.98 397.18 C 438.83 394.07 439.72 390.96 441.12 388.04 C 438.67 382.43 436.21 376.81 434.94 370.80 C 432.94 369.08 430.33 368.29 428.03 367.09 C 429.84 366.57 431.65 366.05 433.47 365.54 C 433.69 364.08 433.92 362.62 434.16 361.18 C 435.64 360.42 437.11 359.66 438.60 358.91 C 438.94 359.40 439.62 360.38 439.97 360.88 C 442.34 355.98 442.42 350.31 441.45 345.05 C 440.13 340.46 436.74 336.89 433.76 333.30 C 435.15 330.35 435.69 327.14 435.80 323.90 C 434.49 324.64 433.18 325.39 431.88 326.15 C 431.70 325.31 431.35 323.62 431.17 322.78 C 424.56 324.62 419.99 330.08 414.14 333.36 C 413.45 332.79 412.78 332.24 412.11 331.68 C 411.03 332.26 409.96 332.85 408.85 333.35 C 407.33 332.55 405.97 331.49 404.59 330.50 C 399.95 332.07 394.95 333.17 390.07 332.22 C 387.00 330.77 385.69 327.35 384.09 324.59 C 385.96 325.61 387.82 326.67 389.67 327.74 C 390.31 326.28 390.95 324.82 391.59 323.36 C 390.22 322.71 388.81 322.10 387.53 321.29 C 386.87 319.79 386.51 318.19 386.07 316.62 C 385.03 315.83 383.99 315.05 382.95 314.27 C 382.05 315.00 381.14 315.73 380.27 316.49 C 379.45 313.62 377.15 310.24 379.23 307.41 C 384.43 300.49 390.73 294.48 396.59 288.13 C 395.67 287.21 394.74 286.32 393.79 285.45 C 393.83 284.79 393.91 283.47 393.95 282.81 C 394.46 284.36 395.48 287.48 395.98 289.03 C 397.59 287.08 400.79 283.16 402.40 281.20 C 401.12 281.29 398.57 281.47 397.29 281.56 C 394.70 278.01 398.75 274.62 401.02 272.23 C 401.53 273.55 402.55 276.20 403.06 277.52 C 405.63 267.42 402.17 257.24 401.83 247.12 C 406.71 243.67 413.17 243.55 418.12 240.13 Z" />
<path fill="#ffff33" stroke="#ffff33" stroke-width="0.09375" opacity="1.00" d=" M 380.27 316.49 C 381.14 315.73 382.05 315.00 382.95 314.27 C 383.99 315.05 385.03 315.83 386.07 316.62 C 386.51 318.19 386.87 319.79 387.53 321.29 C 388.81 322.10 390.22 322.71 391.59 323.36 C 390.95 324.82 390.31 326.28 389.67 327.74 C 387.82 326.67 385.96 325.61 384.09 324.59 C 385.69 327.35 387.00 330.77 390.07 332.22 C 394.95 333.17 399.95 332.07 404.59 330.50 C 405.97 331.49 407.33 332.55 408.85 333.35 C 409.96 332.85 411.03 332.26 412.11 331.68 C 412.78 332.24 413.45 332.79 414.14 333.36 C 419.99 330.08 424.56 324.62 431.17 322.78 C 431.35 323.62 431.70 325.31 431.88 326.15 C 433.18 325.39 434.49 324.64 435.80 323.90 C 435.69 327.14 435.15 330.35 433.76 333.30 C 436.74 336.89 440.13 340.46 441.45 345.05 C 442.42 350.31 442.34 355.98 439.97 360.88 C 439.62 360.38 438.94 359.40 438.60 358.91 C 437.11 359.66 435.64 360.42 434.16 361.18 C 433.92 362.62 433.69 364.08 433.47 365.54 C 431.65 366.05 429.84 366.57 428.03 367.09 C 430.33 368.29 432.94 369.08 434.94 370.80 C 436.21 376.81 438.67 382.43 441.12 388.04 C 439.72 390.96 438.83 394.07 437.98 397.18 C 439.06 398.72 440.15 400.26 441.25 401.79 C 444.86 402.45 448.19 403.99 451.14 406.14 C 450.43 406.98 449.72 407.81 449.01 408.66 C 449.91 409.19 450.80 409.74 451.69 410.33 C 450.35 412.53 447.94 414.27 447.54 416.92 C 448.59 420.48 450.64 423.62 452.37 426.88 C 451.74 427.09 450.48 427.51 449.85 427.73 C 451.20 429.73 452.76 431.59 454.58 433.20 C 454.68 433.97 454.77 434.74 454.88 435.52 C 450.72 438.49 446.40 441.97 444.75 447.00 C 445.62 449.75 449.39 450.01 450.53 452.49 C 450.34 454.87 449.00 456.96 448.10 459.13 C 446.76 459.48 445.43 459.83 444.10 460.19 C 444.78 462.85 446.16 465.66 445.31 468.44 C 442.37 472.29 438.55 475.41 434.62 478.21 C 435.21 482.08 431.93 484.45 430.26 487.48 C 429.86 490.51 430.60 493.54 430.97 496.54 C 433.31 497.35 437.11 498.36 435.62 501.68 C 433.04 504.99 429.25 507.19 426.88 510.73 C 427.84 513.85 427.85 517.13 426.10 519.98 C 423.58 519.58 421.12 518.93 418.70 518.15 C 419.82 523.08 415.23 526.18 413.31 530.16 C 411.93 530.46 410.55 530.72 409.22 531.18 C 407.35 533.64 405.26 535.94 403.30 538.31 C 402.22 541.84 401.32 545.43 399.75 548.78 C 395.32 548.55 392.17 552.25 387.88 552.71 C 387.01 553.88 386.14 555.06 385.28 556.24 C 385.23 556.94 385.13 558.33 385.08 559.03 C 382.92 562.74 380.04 565.92 377.17 569.08 C 376.80 570.99 377.13 572.96 377.21 574.90 C 376.71 575.86 376.21 576.82 375.72 577.80 C 370.49 577.62 365.88 580.02 361.39 582.35 C 359.74 583.25 359.35 585.18 359.17 586.89 C 355.65 585.78 352.29 583.82 348.45 584.35 C 346.05 583.33 343.77 582.08 341.52 580.79 C 341.22 584.07 339.49 586.86 337.67 589.50 C 334.95 586.11 331.84 583.04 328.39 580.40 C 328.86 579.35 329.34 578.29 329.82 577.25 C 327.40 575.63 325.02 573.66 322.07 573.15 C 318.95 572.62 315.78 572.58 312.64 572.29 C 312.59 568.60 312.81 564.92 313.15 561.25 C 313.55 558.58 311.88 556.26 311.22 553.80 C 310.19 550.70 310.91 547.32 309.89 544.24 C 307.23 541.45 304.33 538.88 301.47 536.30 C 299.92 535.92 298.30 536.29 296.73 536.37 C 294.61 535.09 292.63 533.61 290.77 531.99 C 291.52 531.27 292.28 530.55 293.04 529.83 C 292.77 527.10 293.02 524.06 291.30 521.74 C 288.99 518.30 284.24 518.07 281.77 514.78 C 281.01 514.78 279.49 514.78 278.73 514.78 C 279.45 514.70 280.88 514.55 281.60 514.47 C 281.52 511.75 281.16 509.05 280.32 506.46 C 281.87 506.66 283.42 506.86 284.97 507.07 C 285.37 504.75 285.98 502.33 288.69 501.85 C 288.60 501.34 288.40 500.32 288.31 499.81 C 289.88 498.90 291.37 497.79 293.09 497.17 C 294.76 497.26 296.40 497.65 298.04 497.99 C 299.32 497.34 300.60 496.68 301.89 496.04 C 301.24 495.27 300.60 494.51 299.97 493.75 C 301.70 492.31 303.54 491.00 305.46 489.83 C 308.66 486.46 313.27 485.19 317.57 483.87 C 317.46 481.79 317.20 479.72 316.81 477.68 C 317.19 476.79 317.58 475.91 317.98 475.04 C 318.93 475.50 319.89 475.97 320.84 476.45 C 321.68 474.77 322.52 473.10 323.35 471.43 C 324.98 472.36 326.62 473.28 328.26 474.21 C 329.59 473.87 330.92 473.54 332.26 473.23 C 332.66 472.80 333.45 471.94 333.85 471.50 C 334.81 471.70 336.73 472.10 337.70 472.30 C 337.34 473.75 336.99 475.22 336.64 476.69 C 341.01 480.45 342.56 487.18 348.66 488.88 C 351.07 487.58 353.66 486.70 356.37 486.32 C 359.19 488.62 362.96 487.03 366.23 487.16 C 367.50 485.78 368.75 484.38 370.00 482.98 C 369.63 482.29 368.90 480.90 368.53 480.21 C 368.52 478.08 368.47 475.96 368.40 473.85 C 366.46 474.21 364.52 474.57 362.58 474.92 C 361.13 471.29 359.45 467.70 356.77 464.81 C 356.93 464.40 357.25 463.60 357.41 463.19 C 358.22 462.19 359.08 461.24 359.94 460.28 C 360.75 456.16 359.58 450.95 363.08 447.88 C 361.67 446.90 359.85 446.15 359.36 444.34 C 357.53 439.01 358.73 433.19 360.95 428.17 C 359.44 426.10 358.02 423.95 356.76 421.73 C 358.60 422.60 360.43 423.54 362.20 424.56 C 367.59 425.59 371.24 430.33 376.74 431.01 C 374.07 424.94 372.58 418.49 372.07 411.90 C 370.09 410.45 367.45 410.75 365.19 410.12 C 363.46 409.15 362.17 407.59 360.76 406.23 C 355.94 406.65 350.75 405.00 346.19 407.00 C 345.93 408.81 345.98 410.64 345.94 412.47 C 344.70 412.98 343.48 413.53 342.25 414.07 C 342.06 414.54 341.69 415.48 341.50 415.95 C 338.70 416.68 339.13 418.72 341.98 419.13 C 339.82 421.50 337.97 424.52 334.85 425.71 C 332.80 425.70 330.78 425.31 328.76 425.05 C 328.41 422.06 328.07 419.08 327.50 416.14 C 327.17 414.48 326.77 412.85 326.37 411.22 C 327.51 410.07 328.63 408.92 329.78 407.78 C 327.20 405.35 324.80 402.01 320.99 401.65 C 319.88 402.91 320.12 404.61 320.02 406.16 C 316.76 400.76 315.21 394.46 315.44 388.17 C 315.50 387.00 316.61 386.04 317.68 385.75 C 321.30 384.91 325.31 385.55 328.58 383.48 C 333.03 380.83 338.77 378.53 339.97 372.88 L 339.96 372.27 C 343.26 367.66 350.46 370.20 353.37 365.29 C 355.82 361.55 357.28 357.29 359.18 353.26 C 360.56 350.13 363.76 348.31 365.26 345.26 C 365.78 343.06 366.06 340.81 366.35 338.57 L 367.46 338.40 C 367.39 337.23 367.32 336.07 367.27 334.92 C 369.37 334.32 371.99 334.27 373.41 332.34 C 376.82 327.57 376.94 321.29 380.27 316.49 Z" />
<path fill="#ffc833" stroke="#ffc833" stroke-width="0.09375" opacity="1.00" d=" M 311.70 336.53 C 316.20 335.13 320.24 332.55 324.21 330.05 C 324.53 330.36 325.15 330.96 325.46 331.26 C 327.69 331.28 329.92 331.39 332.14 331.62 C 331.97 334.83 331.57 338.02 330.99 341.18 C 330.52 343.81 331.92 346.30 331.97 348.92 C 331.48 351.55 330.22 353.96 329.18 356.41 C 328.31 358.40 327.40 360.39 326.47 362.36 C 328.27 364.34 330.17 366.23 332.21 367.98 C 332.47 368.38 333.00 369.20 333.27 369.61 C 335.19 370.27 337.10 370.97 338.99 371.74 L 339.47 372.03 L 339.96 372.27 L 339.97 372.88 C 338.77 378.53 333.03 380.83 328.58 383.48 C 325.31 385.55 321.30 384.91 317.68 385.75 C 316.61 386.04 315.50 387.00 315.44 388.17 C 315.21 394.46 316.76 400.76 320.02 406.16 C 320.12 404.61 319.88 402.91 320.99 401.65 C 324.80 402.01 327.20 405.35 329.78 407.78 C 328.63 408.92 327.51 410.07 326.37 411.22 C 326.77 412.85 327.17 414.48 327.50 416.14 C 326.93 416.09 325.78 416.00 325.20 415.96 C 324.77 417.52 324.33 419.07 323.91 420.64 C 320.73 417.79 316.90 420.63 313.66 421.83 C 312.51 423.33 313.18 425.69 312.90 427.54 C 309.90 425.74 306.32 424.35 302.91 425.92 C 300.29 426.80 297.52 426.72 294.80 426.65 C 292.47 424.55 290.38 422.20 288.83 419.46 C 288.67 416.04 287.77 412.43 284.99 410.18 C 284.90 408.51 284.86 406.86 284.84 405.20 C 282.34 404.65 280.06 403.54 277.96 402.12 C 278.38 399.50 278.87 396.89 279.45 394.30 C 280.75 394.05 283.35 393.53 284.65 393.28 C 278.34 389.19 270.88 386.49 263.28 387.50 C 263.20 385.67 263.45 383.42 261.85 382.13 C 260.23 381.49 258.50 381.24 256.81 380.90 C 254.41 372.79 254.99 364.20 257.56 356.21 C 258.40 356.49 259.25 356.78 260.10 357.06 C 261.49 356.60 262.88 356.14 264.28 355.70 C 263.97 353.83 263.16 352.13 261.90 350.72 C 262.22 349.10 262.57 347.49 262.93 345.89 C 267.07 348.32 271.82 349.37 276.09 351.53 C 277.64 351.22 279.21 350.92 280.77 350.61 C 281.31 349.09 281.86 347.58 282.43 346.07 C 282.07 344.29 281.70 342.51 281.30 340.74 C 282.31 340.52 283.33 340.31 284.35 340.10 C 285.83 341.35 287.40 342.48 288.97 343.61 C 289.09 343.30 289.32 342.68 289.44 342.37 C 290.86 341.71 292.28 341.04 293.69 340.34 C 293.43 339.70 292.90 338.41 292.64 337.76 C 292.87 335.59 292.75 333.40 292.50 331.25 C 294.29 331.34 296.08 331.30 297.87 331.26 C 298.97 332.71 300.05 334.18 301.13 335.65 C 304.67 335.73 308.17 336.45 311.70 336.53 Z" />
<path fill="#cccd33" stroke="#cccd33" stroke-width="0.09375" opacity="1.00" d=" M 365.09 336.54 C 365.41 337.05 366.03 338.06 366.35 338.57 C 366.06 340.81 365.78 343.06 365.26 345.26 C 365.34 342.35 365.20 339.44 365.09 336.54 Z" />
<path fill="#b4ccfe" stroke="#b4ccfe" stroke-width="0.09375" opacity="1.00" d=" M 263.28 387.50 C 270.88 386.49 278.34 389.19 284.65 393.28 C 283.35 393.53 280.75 394.05 279.45 394.30 C 278.87 396.89 278.38 399.50 277.96 402.12 C 280.06 403.54 282.34 404.65 284.84 405.20 C 284.86 406.86 284.90 408.51 284.99 410.18 C 287.77 412.43 288.67 416.04 288.83 419.46 C 290.38 422.20 292.47 424.55 294.80 426.65 C 297.52 426.72 300.29 426.80 302.91 425.92 C 302.69 432.71 300.93 439.29 299.09 445.78 C 297.52 443.57 295.96 441.36 294.38 439.16 C 292.62 440.00 290.85 440.83 289.08 441.65 C 288.59 440.20 288.13 438.77 287.66 437.33 C 286.85 436.88 286.05 436.44 285.25 436.01 C 284.38 436.54 283.52 437.08 282.67 437.62 C 279.37 435.40 275.50 436.38 271.93 437.20 C 273.29 440.54 274.64 443.88 276.01 447.21 C 275.82 447.62 275.46 448.44 275.27 448.84 C 274.24 448.62 273.22 448.40 272.20 448.18 C 267.13 450.98 259.05 450.24 257.06 443.98 C 253.96 443.88 250.96 444.68 248.37 446.39 C 247.91 444.68 247.44 442.97 246.96 441.27 C 243.06 443.65 239.68 446.81 236.85 450.39 C 236.13 449.51 235.42 448.64 234.72 447.77 C 234.18 447.62 233.11 447.32 232.58 447.17 C 232.46 446.61 232.22 445.50 232.10 444.95 C 233.09 443.92 234.08 442.90 235.07 441.89 C 234.21 440.29 233.34 438.70 232.50 437.10 C 231.00 436.92 229.51 436.73 228.03 436.55 C 228.33 432.77 230.50 429.69 232.65 426.73 C 234.16 424.61 235.67 422.48 237.49 420.62 C 236.80 420.29 235.43 419.64 234.74 419.32 C 233.76 417.29 232.74 415.28 231.72 413.28 C 230.93 413.69 229.34 414.50 228.54 414.91 C 228.73 412.33 228.51 409.68 229.25 407.18 C 235.74 405.19 239.78 399.14 246.20 397.04 C 248.84 396.34 251.62 396.76 254.29 396.24 C 257.53 393.60 259.39 389.26 263.28 387.50 Z" />
<path fill="#a3fd00" stroke="#a3fd00" stroke-width="0.09375" opacity="1.00" d=" M 346.19 407.00 C 350.75 405.00 355.94 406.65 360.76 406.23 C 362.17 407.59 363.46 409.15 365.19 410.12 C 367.45 410.75 370.09 410.45 372.07 411.90 C 372.58 418.49 374.07 424.94 376.74 431.01 C 371.24 430.33 367.59 425.59 362.20 424.56 C 360.43 423.54 358.60 422.60 356.76 421.73 C 358.02 423.95 359.44 426.10 360.95 428.17 C 358.73 433.19 357.53 439.01 359.36 444.34 C 359.85 446.15 361.67 446.90 363.08 447.88 C 359.58 450.95 360.75 456.16 359.94 460.28 C 359.08 461.24 358.22 462.19 357.41 463.19 L 357.74 462.17 C 357.08 461.70 355.77 460.75 355.11 460.28 C 354.39 461.38 353.67 462.49 352.96 463.60 C 351.77 462.61 350.60 461.60 349.44 460.60 C 348.47 460.84 347.50 461.08 346.54 461.33 C 346.40 459.75 346.26 458.19 346.13 456.62 C 343.93 456.57 341.60 457.18 339.48 456.50 C 335.05 452.71 333.95 446.57 330.17 442.28 C 329.37 443.31 328.57 444.34 327.78 445.39 C 326.54 444.89 325.30 444.41 324.06 443.95 C 323.89 443.28 323.54 441.95 323.36 441.28 C 321.38 440.66 319.43 439.98 317.48 439.28 C 317.40 439.69 317.25 440.49 317.17 440.90 C 316.77 440.88 315.98 440.85 315.59 440.83 C 314.53 441.78 313.43 442.68 312.28 443.51 C 312.34 438.18 312.72 432.86 312.90 427.54 C 313.18 425.69 312.51 423.33 313.66 421.83 C 316.90 420.63 320.73 417.79 323.91 420.64 C 324.33 419.07 324.77 417.52 325.20 415.96 C 325.78 416.00 326.93 416.09 327.50 416.14 C 328.07 419.08 328.41 422.06 328.76 425.05 C 330.78 425.31 332.80 425.70 334.85 425.71 C 337.97 424.52 339.82 421.50 341.98 419.13 C 339.13 418.72 338.70 416.68 341.50 415.95 C 341.69 415.48 342.06 414.54 342.25 414.07 C 343.48 413.53 344.70 412.98 345.94 412.47 C 345.98 410.64 345.93 408.81 346.19 407.00 Z" />
<path fill="#a3fd00" stroke="#a3fd00" stroke-width="0.09375" opacity="1.00" d=" M 223.79 414.19 C 225.36 414.46 226.93 414.84 228.54 414.91 C 229.34 414.50 230.93 413.69 231.72 413.28 C 232.74 415.28 233.76 417.29 234.74 419.32 C 235.43 419.64 236.80 420.29 237.49 420.62 C 235.67 422.48 234.16 424.61 232.65 426.73 C 230.50 429.69 228.33 432.77 228.03 436.55 C 229.51 436.73 231.00 436.92 232.50 437.10 C 233.34 438.70 234.21 440.29 235.07 441.89 C 234.08 442.90 233.09 443.92 232.10 444.95 C 232.22 445.50 232.46 446.61 232.58 447.17 C 233.11 447.32 234.18 447.62 234.72 447.77 C 235.42 448.64 236.13 449.51 236.85 450.39 C 236.57 451.05 236.00 452.37 235.71 453.03 C 238.87 454.43 241.26 456.85 242.18 460.23 C 242.56 460.43 243.33 460.84 243.72 461.05 C 244.51 463.08 245.30 465.12 246.05 467.17 C 247.98 466.93 249.91 466.69 251.84 466.44 C 251.86 467.67 251.88 468.91 251.91 470.16 C 254.36 471.16 256.57 472.61 258.66 474.21 C 257.65 474.90 256.65 475.59 255.65 476.28 C 256.11 476.96 256.58 477.64 257.06 478.33 C 254.03 480.42 255.83 483.74 256.49 486.54 C 255.75 487.12 255.00 487.71 254.26 488.31 C 254.18 491.19 252.42 494.91 255.51 496.81 C 255.64 497.25 255.89 498.14 256.02 498.58 C 256.90 498.64 258.65 498.75 259.53 498.81 C 259.40 500.18 259.27 501.56 259.13 502.95 C 261.18 504.21 263.47 505.11 265.31 506.69 C 266.53 508.75 267.01 511.13 267.86 513.36 C 269.98 512.49 272.10 511.64 274.23 510.80 C 275.32 512.13 276.39 513.48 277.42 514.86 C 277.75 514.84 278.40 514.80 278.73 514.78 C 279.49 514.78 281.01 514.78 281.77 514.78 C 284.24 518.07 288.99 518.30 291.30 521.74 C 293.02 524.06 292.77 527.10 293.04 529.83 C 292.28 530.55 291.52 531.27 290.77 531.99 C 292.63 533.61 294.61 535.09 296.73 536.37 C 298.30 536.29 299.92 535.92 301.47 536.30 C 304.33 538.88 307.23 541.45 309.89 544.24 C 310.91 547.32 310.19 550.70 311.22 553.80 C 311.88 556.26 313.55 558.58 313.15 561.25 C 312.81 564.92 312.59 568.60 312.64 572.29 C 315.78 572.58 318.95 572.62 322.07 573.15 C 325.02 573.66 327.40 575.63 329.82 577.25 C 329.34 578.29 328.86 579.35 328.39 580.40 C 331.84 583.04 334.95 586.11 337.67 589.50 C 335.39 595.53 336.90 601.96 335.41 608.13 C 331.23 610.41 325.95 610.05 322.26 613.33 C 320.73 615.19 319.81 612.06 318.16 611.94 C 317.57 614.05 317.41 616.24 317.13 618.41 C 316.36 618.37 314.83 618.28 314.06 618.24 C 313.70 618.55 312.99 619.17 312.63 619.48 C 311.15 619.65 309.67 619.83 308.20 620.02 C 308.29 621.63 308.34 623.24 308.40 624.87 C 306.29 626.56 303.77 627.54 301.10 627.93 C 300.69 628.57 299.88 629.86 299.47 630.50 C 298.91 630.52 297.78 630.55 297.22 630.56 C 294.17 628.57 292.10 625.60 290.22 622.56 C 289.41 622.92 288.59 623.30 287.78 623.68 C 285.85 622.75 283.79 622.19 281.69 621.85 C 280.91 620.23 280.04 618.67 279.07 617.18 C 273.84 619.22 269.97 623.83 264.27 624.77 C 263.88 624.49 263.11 623.92 262.73 623.64 C 261.71 621.44 259.35 620.88 257.27 620.17 C 256.51 617.48 255.84 614.77 255.45 612.00 C 252.62 610.59 250.83 608.15 250.16 605.08 C 250.45 604.48 251.01 603.27 251.29 602.67 C 250.09 602.50 248.90 602.35 247.70 602.22 C 247.39 602.80 246.76 603.96 246.44 604.54 C 242.65 606.09 238.63 605.71 234.68 605.19 C 234.10 604.45 233.53 603.70 232.97 602.97 C 232.71 601.46 232.94 599.48 231.30 598.70 C 227.91 597.20 223.10 598.23 220.96 594.51 C 219.92 595.56 218.87 596.62 217.83 597.68 C 217.28 597.66 216.18 597.62 215.63 597.60 C 215.11 597.86 214.08 598.39 213.56 598.65 C 213.06 599.67 212.55 600.69 212.04 601.72 C 210.86 601.59 209.68 601.48 208.50 601.39 C 206.47 603.19 204.29 604.84 201.85 606.07 C 200.74 608.68 202.13 612.52 198.47 613.26 C 196.30 610.50 192.76 610.75 189.61 610.74 C 188.42 612.23 187.21 613.71 185.98 615.17 C 184.29 614.34 182.51 613.73 180.81 612.93 C 179.06 611.05 177.37 609.08 175.15 607.73 C 175.43 607.04 175.73 606.35 176.02 605.67 C 174.57 605.07 173.14 604.44 171.73 603.78 C 169.65 604.38 167.56 604.96 165.50 605.63 C 163.32 605.62 160.97 606.72 158.96 605.50 C 158.45 604.24 157.97 602.98 157.48 601.73 C 155.26 600.77 153.40 599.23 151.66 597.60 C 151.59 596.85 151.47 595.34 151.41 594.59 C 149.04 595.07 146.63 595.21 144.23 595.13 C 143.19 592.18 142.05 589.26 141.03 586.30 C 139.11 587.33 137.21 588.40 135.35 589.54 C 133.51 588.81 131.70 588.02 129.90 587.21 C 130.09 586.62 130.49 585.44 130.68 584.85 C 130.05 584.00 129.53 583.07 128.90 582.23 C 130.54 577.69 132.46 573.27 134.73 569.01 C 132.09 568.47 129.44 567.99 126.78 567.56 C 125.19 566.19 123.58 564.83 122.05 563.40 C 127.41 562.00 128.28 555.79 131.15 551.86 C 135.35 551.54 139.57 551.08 143.53 549.53 C 149.57 548.28 156.58 546.92 160.37 541.53 C 162.42 536.05 158.66 531.00 156.65 526.16 C 157.58 523.88 159.02 521.18 157.18 518.95 C 155.28 517.18 152.45 517.03 150.24 515.78 C 150.41 513.35 152.37 511.48 153.95 509.80 C 156.28 509.58 158.64 510.01 160.96 509.64 C 163.75 508.95 165.74 504.91 163.36 502.75 C 161.03 501.09 158.06 500.20 156.56 497.58 C 160.69 495.25 162.23 490.60 163.97 486.51 C 166.47 486.63 169.36 487.44 171.49 485.66 C 173.53 484.05 175.65 482.20 176.63 479.73 C 177.44 476.39 176.09 473.05 175.46 469.81 C 179.43 469.46 184.61 471.12 187.28 467.18 C 190.67 463.91 189.15 459.07 188.61 455.04 C 191.07 455.27 193.70 456.24 196.08 455.07 C 201.10 452.84 206.11 450.53 210.86 447.79 C 215.33 445.08 215.96 439.35 215.49 434.62 C 219.11 433.55 222.09 430.74 222.62 426.89 C 222.89 422.65 223.22 418.41 223.79 414.19 Z" />
<path fill="#d199fe" stroke="#d199fe" stroke-width="0.09375" opacity="1.00" d=" M 302.91 425.92 C 306.32 424.35 309.90 425.74 312.90 427.54 C 312.72 432.86 312.34 438.18 312.28 443.51 C 313.43 442.68 314.53 441.78 315.59 440.83 C 315.98 440.85 316.77 440.88 317.17 440.90 C 317.25 440.49 317.40 439.69 317.48 439.28 C 319.43 439.98 321.38 440.66 323.36 441.28 C 323.54 441.95 323.89 443.28 324.06 443.95 C 325.30 444.41 326.54 444.89 327.78 445.39 C 328.57 444.34 329.37 443.31 330.17 442.28 C 333.95 446.57 335.05 452.71 339.48 456.50 C 341.60 457.18 343.93 456.57 346.13 456.62 C 346.26 458.19 346.40 459.75 346.54 461.33 C 347.50 461.08 348.47 460.84 349.44 460.60 C 350.60 461.60 351.77 462.61 352.96 463.60 C 353.67 462.49 354.39 461.38 355.11 460.28 C 355.77 460.75 357.08 461.70 357.74 462.17 L 357.41 463.19 C 357.25 463.60 356.93 464.40 356.77 464.81 C 359.45 467.70 361.13 471.29 362.58 474.92 C 364.52 474.57 366.46 474.21 368.40 473.85 C 368.47 475.96 368.52 478.08 368.53 480.21 C 368.90 480.90 369.63 482.29 370.00 482.98 C 368.75 484.38 367.50 485.78 366.23 487.16 C 362.96 487.03 359.19 488.62 356.37 486.32 C 353.66 486.70 351.07 487.58 348.66 488.88 C 342.56 487.18 341.01 480.45 336.64 476.69 C 336.99 475.22 337.34 473.75 337.70 472.30 C 336.73 472.10 334.81 471.70 333.85 471.50 C 333.45 471.94 332.66 472.80 332.26 473.23 C 330.92 473.54 329.59 473.87 328.26 474.21 C 326.62 473.28 324.98 472.36 323.35 471.43 C 322.52 473.10 321.68 474.77 320.84 476.45 C 319.89 475.97 318.93 475.50 317.98 475.04 C 317.58 475.91 317.19 476.79 316.81 477.68 C 317.20 479.72 317.46 481.79 317.57 483.87 C 313.27 485.19 308.66 486.46 305.46 489.83 C 303.54 491.00 301.70 492.31 299.97 493.75 C 300.60 494.51 301.24 495.27 301.89 496.04 C 300.60 496.68 299.32 497.34 298.04 497.99 C 296.40 497.65 294.76 497.26 293.09 497.17 C 291.37 497.79 289.88 498.90 288.31 499.81 C 288.40 500.32 288.60 501.34 288.69 501.85 C 285.98 502.33 285.37 504.75 284.97 507.07 C 283.42 506.86 281.87 506.66 280.32 506.46 C 281.16 509.05 281.52 511.75 281.60 514.47 C 280.88 514.55 279.45 514.70 278.73 514.78 C 278.40 514.80 277.75 514.84 277.42 514.86 C 276.39 513.48 275.32 512.13 274.23 510.80 C 272.10 511.64 269.98 512.49 267.86 513.36 C 267.01 511.13 266.53 508.75 265.31 506.69 C 263.47 505.11 261.18 504.21 259.13 502.95 C 259.27 501.56 259.40 500.18 259.53 498.81 C 258.65 498.75 256.90 498.64 256.02 498.58 C 255.89 498.14 255.64 497.25 255.51 496.81 C 252.42 494.91 254.18 491.19 254.26 488.31 C 255.00 487.71 255.75 487.12 256.49 486.54 C 255.83 483.74 254.03 480.42 257.06 478.33 C 256.58 477.64 256.11 476.96 255.65 476.28 C 256.65 475.59 257.65 474.90 258.66 474.21 C 256.57 472.61 254.36 471.16 251.91 470.16 C 251.88 468.91 251.86 467.67 251.84 466.44 C 249.91 466.69 247.98 466.93 246.05 467.17 C 245.30 465.12 244.51 463.08 243.72 461.05 C 243.33 460.84 242.56 460.43 242.18 460.23 C 241.26 456.85 238.87 454.43 235.71 453.03 C 236.00 452.37 236.57 451.05 236.85 450.39 C 239.68 446.81 243.06 443.65 246.96 441.27 C 247.44 442.97 247.91 444.68 248.37 446.39 C 250.96 444.68 253.96 443.88 257.06 443.98 C 259.05 450.24 267.13 450.98 272.20 448.18 C 273.22 448.40 274.24 448.62 275.27 448.84 C 275.46 448.44 275.82 447.62 276.01 447.21 C 274.64 443.88 273.29 440.54 271.93 437.20 C 275.50 436.38 279.37 435.40 282.67 437.62 C 283.52 437.08 284.38 436.54 285.25 436.01 C 286.05 436.44 286.85 436.88 287.66 437.33 C 288.13 438.77 288.59 440.20 289.08 441.65 C 290.85 440.83 292.62 440.00 294.38 439.16 C 295.96 441.36 297.52 443.57 299.09 445.78 C 300.93 439.29 302.69 432.71 302.91 425.92 Z" />
<path fill="#d199fe" stroke="#d199fe" stroke-width="0.09375" opacity="1.00" d=" M 544.70 485.22 C 546.85 483.41 549.16 481.80 551.54 480.32 C 551.68 481.10 551.95 482.65 552.09 483.43 C 554.04 485.08 555.90 486.85 557.64 488.75 C 561.71 489.96 565.45 491.98 568.87 494.49 C 571.47 494.01 573.88 494.63 575.31 496.98 C 577.94 497.16 580.57 497.31 583.21 497.55 C 586.36 496.39 589.32 494.38 592.76 494.18 C 597.78 494.47 601.89 497.99 604.27 502.22 C 600.09 501.61 596.00 502.53 592.11 504.06 C 592.95 505.15 593.78 506.24 594.63 507.34 C 596.56 508.02 598.54 508.63 600.33 509.68 C 600.73 511.30 600.39 512.97 600.25 514.61 C 599.23 515.78 596.84 516.41 597.08 518.26 C 598.26 518.73 599.45 519.17 600.67 519.59 C 600.91 520.08 601.39 521.06 601.63 521.56 C 602.18 521.78 603.28 522.23 603.83 522.45 C 603.47 523.14 603.12 523.84 602.77 524.54 C 601.53 524.67 600.30 524.81 599.08 524.95 C 600.16 526.65 601.22 528.36 602.26 530.10 C 601.49 531.06 600.73 532.03 599.98 533.00 C 600.40 533.87 600.82 534.74 601.25 535.62 C 602.89 535.18 604.60 533.73 606.32 534.61 C 609.03 535.76 610.27 538.61 611.76 540.95 C 612.29 540.66 612.83 540.37 613.37 540.09 C 612.87 538.63 612.62 537.09 612.64 535.56 C 613.81 535.94 614.98 536.32 616.16 536.72 C 616.33 537.50 616.68 539.06 616.86 539.85 C 618.63 538.98 620.42 538.11 622.21 537.26 C 622.80 537.84 623.39 538.42 624.00 539.01 C 624.21 537.01 624.40 535.00 624.49 533.00 C 626.46 533.86 629.60 533.44 630.47 535.80 C 630.00 536.30 629.07 537.29 628.61 537.79 C 627.91 540.57 627.83 543.45 628.25 546.29 C 631.89 547.26 635.49 548.40 639.13 549.38 C 639.55 552.42 638.88 555.43 638.57 558.44 C 640.08 560.32 641.95 561.86 643.69 563.53 C 648.46 566.39 648.18 572.26 649.85 576.90 C 650.48 575.47 651.11 574.04 651.74 572.61 C 656.38 576.39 650.20 582.59 653.12 587.18 C 653.72 584.63 654.76 582.15 657.24 580.93 C 657.21 580.11 657.14 578.48 657.11 577.66 C 658.10 578.02 659.09 578.39 660.09 578.77 C 661.54 578.71 663.00 578.66 664.46 578.64 C 665.38 577.93 666.31 577.22 667.25 576.52 C 666.46 577.51 665.71 578.53 665.02 579.58 C 665.99 581.09 667.32 582.32 668.40 583.76 C 667.71 586.88 666.03 589.81 663.11 591.33 C 663.13 592.42 663.16 593.52 663.20 594.62 C 663.87 595.31 664.56 596.00 665.25 596.70 C 664.56 599.86 663.62 603.60 665.65 606.48 C 666.66 608.06 667.53 609.72 668.19 611.49 C 667.66 611.95 666.58 612.88 666.05 613.34 C 665.79 613.57 665.28 614.02 665.02 614.24 C 665.30 614.94 665.85 616.32 666.12 617.01 C 663.17 617.53 659.99 617.59 657.48 619.43 C 653.77 619.23 650.73 621.37 647.93 623.48 C 646.70 623.53 645.49 623.57 644.28 623.63 C 643.77 624.28 642.74 625.59 642.23 626.24 C 641.32 622.91 640.38 619.46 638.01 616.84 C 638.71 614.66 640.14 612.89 641.69 611.25 C 639.44 610.86 637.20 610.50 634.97 610.09 C 634.92 610.67 634.82 611.85 634.77 612.43 C 633.32 613.51 631.99 614.74 630.76 616.06 C 629.43 616.23 628.10 616.38 626.79 616.55 C 626.64 617.20 626.34 618.50 626.19 619.15 C 625.11 620.87 624.09 622.62 623.09 624.39 C 622.53 624.44 621.41 624.53 620.85 624.57 C 620.64 629.07 621.27 633.53 622.13 637.94 C 619.87 635.23 618.42 637.33 617.10 639.15 C 615.06 639.51 612.51 639.17 611.40 641.34 C 610.05 643.68 607.53 644.47 605.05 645.03 C 606.22 646.34 607.35 647.69 608.48 649.06 C 606.38 649.90 604.30 650.76 602.23 651.67 C 602.78 653.32 603.33 654.98 603.88 656.66 C 603.24 656.95 601.98 657.53 601.34 657.82 C 601.42 659.51 601.53 661.20 601.65 662.90 C 602.77 663.18 603.90 663.47 605.03 663.76 C 605.92 664.95 606.83 666.13 607.75 667.32 C 606.19 670.17 605.09 673.24 604.56 676.46 C 603.51 677.14 602.46 677.84 601.43 678.56 C 599.63 676.19 597.51 674.11 595.19 672.28 C 591.33 672.47 587.52 673.03 583.70 673.54 C 583.63 674.52 583.49 676.48 583.41 677.45 C 581.20 676.95 579.00 676.42 576.81 675.90 C 577.74 679.34 580.36 683.06 578.53 686.63 C 577.82 688.24 575.98 688.45 574.46 688.61 C 574.59 690.66 574.10 693.08 575.69 694.73 C 577.19 697.19 580.36 698.69 580.77 701.74 C 581.02 703.13 581.20 704.54 581.42 705.96 C 580.90 706.78 579.85 708.43 579.33 709.25 C 580.40 711.83 581.78 714.28 583.66 716.39 C 583.61 717.54 583.57 718.70 583.55 719.86 C 581.95 721.59 581.03 724.59 578.36 724.80 C 576.13 724.73 574.34 723.29 572.50 722.23 C 571.40 723.51 570.74 725.59 568.86 725.90 C 566.07 725.30 563.41 724.24 560.68 723.44 C 559.29 722.61 557.88 721.83 556.47 721.09 C 556.11 720.33 555.77 719.58 555.44 718.85 C 551.07 717.88 547.72 713.23 542.94 714.83 C 541.75 713.18 540.84 711.02 538.78 710.33 C 536.52 710.17 534.27 710.48 532.02 710.52 C 531.37 710.94 530.73 711.37 530.09 711.81 C 526.47 709.97 522.67 708.43 519.51 705.83 C 519.08 702.48 518.52 699.16 518.02 695.83 C 515.95 695.48 513.86 695.35 511.78 695.52 C 509.41 697.70 506.95 699.80 504.73 702.13 C 502.78 700.51 500.41 700.01 497.97 700.64 C 496.69 700.38 495.41 700.12 494.14 699.86 C 493.46 701.37 492.80 702.89 492.15 704.42 C 488.15 704.80 483.63 707.01 479.91 704.60 C 482.18 702.87 483.92 700.63 484.87 697.93 C 484.60 697.05 484.34 696.18 484.08 695.32 C 485.29 694.75 486.51 694.20 487.73 693.65 C 487.47 692.88 487.21 692.12 486.96 691.37 C 485.62 691.69 484.27 692.00 482.95 692.34 C 482.16 690.67 481.37 689.00 480.56 687.36 C 482.01 685.38 483.60 683.50 485.34 681.78 C 481.78 679.08 485.97 675.88 488.08 673.91 C 488.78 674.89 489.49 675.88 490.21 676.87 C 492.20 675.71 494.34 674.70 495.98 673.04 C 495.85 671.60 495.56 670.19 495.28 668.79 C 495.55 667.66 495.82 666.54 496.11 665.43 C 495.18 665.56 494.25 665.70 493.34 665.85 C 491.29 664.39 488.88 664.11 486.58 665.15 C 481.94 663.34 481.99 656.42 476.70 655.85 C 481.01 653.14 480.39 647.95 480.94 643.61 C 477.87 642.97 474.85 640.46 471.65 641.55 C 469.63 642.96 468.20 645.02 466.59 646.85 C 462.79 645.03 460.28 641.59 456.99 639.10 C 457.83 639.02 459.49 638.85 460.33 638.76 C 460.10 637.37 459.87 635.99 459.65 634.61 C 462.56 633.02 465.60 631.64 468.82 630.78 C 467.87 627.22 467.56 623.54 467.70 619.87 C 464.92 620.09 462.16 620.41 459.41 620.84 C 460.15 617.76 460.93 614.69 461.74 611.63 C 460.34 611.20 458.94 610.78 457.55 610.37 C 457.19 606.73 456.77 603.03 455.06 599.73 C 453.76 597.69 454.87 595.39 455.33 593.28 C 456.49 592.78 457.66 592.28 458.84 591.79 C 458.89 591.07 459.00 589.64 459.06 588.92 C 456.02 585.87 453.40 582.44 451.12 578.80 C 449.48 576.09 446.08 575.26 444.22 572.80 C 442.23 569.68 441.63 565.96 440.72 562.45 C 442.77 560.93 444.87 558.81 444.02 555.99 C 442.67 555.49 441.24 555.26 439.84 555.01 C 438.04 551.59 438.39 547.65 438.42 543.93 C 437.32 542.10 435.69 540.33 435.84 538.05 C 435.43 533.68 439.28 530.64 440.47 526.69 C 441.80 526.70 443.14 526.75 444.49 526.84 C 445.13 527.29 445.79 527.74 446.45 528.20 C 446.49 529.79 446.38 531.43 446.82 532.99 C 448.31 533.98 449.97 534.69 451.59 535.48 C 451.80 536.00 452.23 537.06 452.45 537.58 C 455.05 536.86 457.65 536.08 460.15 535.04 C 460.59 535.39 461.49 536.10 461.94 536.46 C 461.34 533.17 461.29 529.83 461.39 526.51 C 466.29 522.19 473.60 518.10 480.10 521.11 C 481.02 520.87 481.94 520.64 482.87 520.41 C 483.29 520.73 484.15 521.36 484.58 521.67 C 487.15 520.14 489.91 518.93 492.91 518.58 C 493.37 516.92 493.85 515.27 494.33 513.62 C 496.27 512.19 498.05 510.56 499.66 508.77 C 499.56 506.30 499.92 503.86 500.65 501.51 C 503.26 502.86 505.87 504.20 508.47 505.58 C 509.01 505.13 509.56 504.70 510.12 504.27 C 514.44 504.72 517.32 501.28 520.97 499.75 C 522.39 499.80 523.80 500.07 525.21 500.30 C 525.47 499.44 525.75 498.58 526.03 497.74 C 528.39 496.63 530.61 495.27 532.72 493.74 C 534.12 491.20 535.96 488.88 538.49 487.39 C 538.71 486.92 539.13 485.96 539.35 485.49 C 541.13 485.39 542.91 485.31 544.70 485.22 Z" />
<path fill="#b4ccfe" stroke="#b4ccfe" stroke-width="0.09375" opacity="1.00" d=" M 110.09 574.05 C 109.40 567.88 115.94 561.81 122.05 563.40 C 123.58 564.83 125.19 566.19 126.78 567.56 C 129.44 567.99 132.09 568.47 134.73 569.01 C 132.46 573.27 130.54 577.69 128.90 582.23 C 129.53 583.07 130.05 584.00 130.68 584.85 C 130.49 585.44 130.09 586.62 129.90 587.21 C 131.70 588.02 133.51 588.81 135.35 589.54 C 137.21 588.40 139.11 587.33 141.03 586.30 C 142.05 589.26 143.19 592.18 144.23 595.13 C 146.63 595.21 149.04 595.07 151.41 594.59 C 151.47 595.34 151.59 596.85 151.66 597.60 C 153.40 599.23 155.26 600.77 157.48 601.73 C 157.97 602.98 158.45 604.24 158.96 605.50 L 159.50 606.88 C 158.16 607.11 156.83 607.33 155.50 607.56 C 154.37 609.83 153.42 612.18 152.43 614.53 C 151.61 617.35 148.19 617.48 146.28 619.27 C 145.79 620.73 145.53 622.26 145.21 623.78 C 144.32 623.81 143.43 623.84 142.55 623.87 C 142.27 623.20 141.72 621.84 141.45 621.16 C 139.50 621.37 137.09 620.83 135.63 622.46 C 134.14 624.31 133.24 626.53 132.26 628.67 C 130.79 629.04 129.31 629.42 127.83 629.78 C 126.59 627.83 124.44 627.61 122.35 627.52 C 122.68 627.10 123.35 626.27 123.69 625.85 C 121.83 625.54 119.98 625.25 118.13 624.95 C 117.68 627.15 117.24 629.36 116.79 631.58 C 113.50 632.39 110.31 633.59 107.29 635.14 C 107.12 636.63 107.03 638.14 106.69 639.63 C 105.62 641.60 103.10 642.66 102.68 644.99 C 102.98 647.25 103.72 649.43 104.33 651.63 C 105.02 652.15 105.71 652.67 106.40 653.20 C 110.75 653.37 113.25 657.20 116.49 659.54 C 116.53 659.93 116.62 660.73 116.67 661.13 C 117.65 661.94 118.63 662.76 119.60 663.60 C 120.88 663.61 122.17 663.63 123.45 663.67 C 123.21 665.87 123.21 668.15 122.52 670.29 C 120.80 673.73 117.18 676.02 116.19 679.87 C 116.44 680.12 116.94 680.63 117.18 680.89 C 119.52 680.29 121.72 679.29 124.05 678.67 C 123.64 680.33 123.21 681.98 122.80 683.66 C 126.77 682.98 129.99 680.37 133.68 678.92 C 133.60 679.37 133.43 680.26 133.35 680.71 C 134.00 680.80 135.30 680.99 135.95 681.09 C 137.06 684.09 137.36 687.31 137.29 690.50 C 137.79 690.88 138.80 691.65 139.30 692.03 C 139.20 693.35 139.09 694.67 138.99 696.00 C 137.13 696.12 135.25 696.10 133.41 696.47 C 131.27 697.34 129.67 699.11 127.96 700.61 C 128.99 701.74 130.03 702.87 131.08 704.01 C 129.79 707.17 127.88 710.08 125.07 712.09 C 123.08 714.14 120.01 713.69 117.56 714.84 C 115.20 714.35 112.79 714.12 110.39 714.43 C 107.01 716.53 103.08 717.49 99.63 719.47 C 99.17 719.29 98.27 718.94 97.81 718.76 C 96.54 719.70 94.94 720.45 94.33 722.03 C 93.02 725.10 90.48 727.29 88.37 729.77 C 87.74 726.14 85.33 722.84 86.63 719.06 C 85.99 714.59 80.26 713.86 76.62 714.81 C 75.91 711.56 74.49 708.56 72.83 705.71 C 68.22 705.51 63.63 706.39 59.02 706.16 C 56.88 708.13 57.36 711.13 56.82 713.73 C 54.44 715.50 51.51 716.80 50.64 719.93 C 47.64 720.12 44.39 720.23 42.51 722.96 C 41.08 722.97 39.64 722.98 38.21 723.01 C 38.07 725.53 37.92 728.06 37.76 730.59 C 36.98 731.41 36.21 732.25 35.44 733.08 C 31.06 730.82 26.50 728.96 22.00 726.98 C 20.72 726.58 20.11 725.41 19.52 724.34 C 21.48 723.90 23.45 723.50 25.41 723.10 C 23.66 720.92 21.86 718.80 20.03 716.71 C 21.51 711.90 21.09 706.90 20.70 701.98 C 20.11 697.25 25.04 694.26 25.02 689.59 C 24.35 689.36 23.01 688.89 22.34 688.66 C 21.95 687.67 21.56 686.68 21.17 685.71 C 20.37 685.23 19.57 684.75 18.77 684.28 C 16.57 680.61 14.67 676.75 13.26 672.72 C 13.31 671.80 13.41 670.89 13.55 670.00 C 12.04 669.01 10.64 667.10 8.62 667.51 C 6.90 667.65 5.19 667.90 3.48 668.13 C 6.42 664.97 7.72 660.79 10.26 657.37 C 14.82 650.98 19.86 644.91 25.75 639.69 C 28.17 637.80 29.01 634.83 29.89 632.03 C 31.34 627.23 36.98 625.02 37.89 619.96 C 38.92 615.32 41.80 611.38 44.63 607.67 C 47.16 604.25 51.65 604.04 55.48 603.42 C 59.58 602.99 62.05 599.26 65.49 597.43 C 69.82 594.99 73.99 591.72 79.04 591.03 C 82.60 591.35 86.12 592.20 89.72 592.00 C 90.09 589.09 89.66 585.28 92.44 583.42 C 96.98 580.41 102.20 583.63 106.93 584.36 C 106.65 583.71 106.10 582.39 105.82 581.73 C 106.90 578.97 110.19 577.16 110.09 574.05 Z" />
<path fill="#a3fd00" stroke="#a3fd00" stroke-width="0.09375" opacity="1.00" d=" M 634.97 610.09 C 637.20 610.50 639.44 610.86 641.69 611.25 C 640.14 612.89 638.71 614.66 638.01 616.84 C 640.38 619.46 641.32 622.91 642.23 626.24 C 642.74 625.59 643.77 624.28 644.28 623.63 C 645.49 623.57 646.70 623.53 647.93 623.48 C 650.73 621.37 653.77 619.23 657.48 619.43 C 659.99 617.59 663.17 617.53 666.12 617.01 C 665.85 616.32 665.30 614.94 665.02 614.24 C 665.28 614.02 665.79 613.57 666.05 613.34 C 666.07 615.83 668.63 618.42 671.16 617.17 C 673.21 616.26 675.28 616.74 677.26 617.59 C 679.54 617.65 681.74 618.34 683.90 619.05 C 684.16 619.91 684.42 620.78 684.71 621.65 C 683.39 625.76 680.94 629.59 680.80 634.01 C 680.61 637.57 680.26 641.22 681.48 644.66 C 681.16 644.81 680.52 645.13 680.21 645.29 C 679.91 646.75 679.61 648.20 679.36 649.69 C 675.95 646.18 669.54 647.73 668.49 652.61 C 666.61 652.01 664.90 651.02 663.35 649.83 C 660.84 650.86 661.66 653.76 661.51 655.92 C 659.51 658.90 658.03 662.17 656.88 665.56 C 657.65 665.34 659.20 664.90 659.97 664.68 C 660.68 666.18 661.41 667.67 662.15 669.17 C 661.76 670.17 661.40 671.17 661.04 672.18 C 660.01 673.19 658.99 674.23 657.99 675.27 C 658.97 677.23 661.65 679.20 660.24 681.61 C 660.47 684.67 661.86 687.45 663.34 690.09 C 664.28 693.84 664.32 697.99 666.37 701.37 C 667.97 704.21 671.46 702.60 673.74 701.69 C 674.73 702.91 675.78 704.09 676.86 705.24 C 676.47 706.41 676.08 707.59 675.71 708.78 C 675.21 709.00 674.19 709.44 673.69 709.66 C 673.64 710.38 673.55 711.82 673.50 712.54 C 673.06 712.88 672.19 713.56 671.75 713.91 C 672.85 715.23 673.95 716.56 675.03 717.92 C 671.97 718.42 668.86 719.39 668.17 722.87 C 669.93 725.68 672.15 728.15 674.66 730.32 C 674.11 730.64 673.00 731.26 672.45 731.58 C 672.25 732.22 671.85 733.49 671.65 734.13 C 672.18 734.19 673.24 734.31 673.77 734.36 C 673.11 736.39 674.52 737.82 675.75 739.24 C 674.61 739.61 673.48 740.00 672.36 740.41 C 673.21 742.95 674.07 745.50 675.06 748.01 C 674.23 749.14 673.36 750.27 671.95 750.66 C 671.33 749.22 670.72 747.81 670.11 746.40 C 668.96 746.27 667.82 746.15 666.69 746.04 C 665.97 743.21 664.52 740.69 662.64 738.50 C 659.45 739.27 656.41 738.47 653.79 736.62 C 653.73 737.44 653.62 739.07 653.57 739.88 C 652.29 739.39 651.02 738.89 649.76 738.41 C 649.18 739.29 648.61 740.18 648.04 741.08 C 647.50 740.83 646.43 740.35 645.90 740.10 C 645.85 740.78 645.77 742.14 645.73 742.82 C 644.83 743.39 643.94 743.98 643.05 744.58 C 641.05 744.11 639.01 744.30 637.04 744.80 C 636.16 744.06 635.29 743.32 634.43 742.60 C 634.28 743.19 633.99 744.37 633.84 744.96 C 632.21 743.97 629.99 742.44 628.39 744.52 C 628.09 744.03 627.49 743.03 627.20 742.53 C 623.04 742.75 619.01 741.60 614.89 741.37 C 613.18 742.66 611.40 743.85 609.66 745.10 C 610.11 745.51 611.00 746.34 611.45 746.75 C 610.57 747.93 610.18 749.32 609.95 750.76 C 607.00 751.03 604.04 751.25 601.13 751.78 C 600.74 749.76 600.37 747.72 600.03 745.70 C 599.60 745.55 598.74 745.23 598.32 745.08 C 598.44 744.17 598.59 743.29 598.72 742.40 C 599.38 741.09 601.09 739.50 599.91 738.01 C 598.18 735.46 595.49 733.66 594.28 730.74 C 592.62 732.43 590.79 734.12 588.21 733.77 C 587.63 732.94 587.05 732.12 586.48 731.30 C 585.53 731.07 584.60 730.84 583.67 730.62 C 582.57 727.61 579.43 726.60 576.93 725.10 L 578.36 724.80 C 581.03 724.59 581.95 721.59 583.55 719.86 C 583.57 718.70 583.61 717.54 583.66 716.39 C 581.78 714.28 580.40 711.83 579.33 709.25 C 579.85 708.43 580.90 706.78 581.42 705.96 C 581.20 704.54 581.02 703.13 580.77 701.74 C 580.36 698.69 577.19 697.19 575.69 694.73 C 574.10 693.08 574.59 690.66 574.46 688.61 C 575.98 688.45 577.82 688.24 578.53 686.63 C 580.36 683.06 577.74 679.34 576.81 675.90 C 579.00 676.42 581.20 676.95 583.41 677.45 C 583.49 676.48 583.63 674.52 583.70 673.54 C 587.52 673.03 591.33 672.47 595.19 672.28 C 597.51 674.11 599.63 676.19 601.43 678.56 C 602.46 677.84 603.51 677.14 604.56 676.46 C 605.09 673.24 606.19 670.17 607.75 667.32 C 606.83 666.13 605.92 664.95 605.03 663.76 C 603.90 663.47 602.77 663.18 601.65 662.90 C 601.53 661.20 601.42 659.51 601.34 657.82 C 601.98 657.53 603.24 656.95 603.88 656.66 C 603.33 654.98 602.78 653.32 602.23 651.67 C 604.30 650.76 606.38 649.90 608.48 649.06 C 607.35 647.69 606.22 646.34 605.05 645.03 C 607.53 644.47 610.05 643.68 611.40 641.34 C 612.51 639.17 615.06 639.51 617.10 639.15 C 618.42 637.33 619.87 635.23 622.13 637.94 C 621.27 633.53 620.64 629.07 620.85 624.57 C 621.41 624.53 622.53 624.44 623.09 624.39 C 624.09 622.62 625.11 620.87 626.19 619.15 C 626.34 618.50 626.64 617.20 626.79 616.55 C 628.10 616.38 629.43 616.23 630.76 616.06 C 631.99 614.74 633.32 613.51 634.77 612.43 C 634.82 611.85 634.92 610.67 634.97 610.09 Z" />
</svg>
